<svg width="62" height="51" viewBox="0 0 62 51" fill="none" xmlns="http://www.w3.org/2000/svg">
<mask id="mask0_67_544" style="mask-type:luminance" maskUnits="userSpaceOnUse" x="3" y="0" width="57" height="51">
<path d="M3.29166 0.5H59.1826V50.5H3.29166V0.5Z" fill="white"/>
</mask>
<g mask="url(#mask0_67_544)">
<path d="M31.2433 11.9825L52.7805 50.4517H59.1908L31.2433 0.534653L3.29573 50.4517H9.70601L31.2433 11.9825Z" fill="black"/>
</g>
<mask id="mask1_67_544" style="mask-type:luminance" maskUnits="userSpaceOnUse" x="13" y="19" width="36" height="32">
<path d="M13.9331 19.6889H48.5881V50.5H13.9331V19.6889Z" fill="white"/>
</mask>
<g mask="url(#mask1_67_544)">
<path d="M31.2433 31.1672L42.0404 50.4517H48.4496L31.2433 19.7183L14.0369 50.4517H20.4461L31.2433 31.1672Z" fill="black"/>
</g>
<mask id="mask2_67_544" style="mask-type:luminance" maskUnits="userSpaceOnUse" x="0" y="30" width="62" height="10">
<path d="M0 30.1623H62V39.5814H0V30.1623Z" fill="white"/>
</mask>
<g mask="url(#mask2_67_544)">
<path d="M0 30.1623H62.002V39.5446H0V30.1623Z" fill="#D2F16C"/>
</g>
<path d="M2.87773 33.0555H4.40447C4.88489 33.0555 5.2564 33.1731 5.52001 33.4083C5.78567 33.6414 5.919 33.9712 5.919 34.3996C5.919 34.848 5.78567 35.1955 5.52001 35.4413C5.2564 35.688 4.88489 35.8109 4.40447 35.8109H3.52507V36.9996H2.87773V33.0555ZM3.52507 33.6519V35.2144H4.37597C4.99176 35.2144 5.30016 34.9488 5.30016 34.4164C5.30016 33.9071 4.99176 33.6519 4.37597 33.6519H3.52507Z" fill="black"/>
<path d="M11.435 36.1091H9.5052L9.13878 36.9996H8.46701L10.1566 33.0555H10.8162L12.4895 36.9996H11.8014L11.435 36.1091ZM11.1907 35.5169L10.4701 33.7654L9.7454 35.5169H11.1907Z" fill="black"/>
<path d="M17.8314 36.9996L17.1352 35.8025C17.0966 35.8088 17.0385 35.8109 16.9602 35.8109H16.0523V36.9996H15.4049V33.0555H16.9602C17.4457 33.0555 17.8233 33.1731 18.092 33.4083C18.3627 33.6414 18.4991 33.9712 18.4991 34.3996C18.4991 34.7167 18.4299 34.9834 18.2915 35.2018C18.1551 35.4203 17.9597 35.5799 17.7052 35.6807L18.5643 36.9996H17.8314ZM16.0523 35.2144H16.9602C17.579 35.2144 17.8884 34.9488 17.8884 34.4164C17.8884 33.9071 17.579 33.6519 16.9602 33.6519H16.0523V35.2144Z" fill="black"/>
<path d="M24.3779 33.6519H23.1646V36.9996H22.5214V33.6519H21.3122V33.0555H24.3779V33.6519Z" fill="black"/>
<path d="M30.6548 36.9996H30.0197L27.9841 34.1686V36.9996H27.3367V33.0555H27.9718L30.0197 35.8907V33.0555H30.6548V36.9996Z" fill="black"/>
<path d="M36.8048 33.6519H34.7202V34.7146H36.589V35.3153H34.7202V36.4031H36.874V36.9996H34.0729V33.0555H36.8048V33.6519Z" fill="black"/>
<path d="M42.4925 36.9996L41.7963 35.8025C41.7576 35.8088 41.6996 35.8109 41.6212 35.8109H40.7133V36.9996H40.066V33.0555H41.6212C42.1067 33.0555 42.4844 33.1731 42.7531 33.4083C43.0238 33.6414 43.1602 33.9712 43.1602 34.3996C43.1602 34.7167 43.091 34.9834 42.9526 35.2018C42.8162 35.4203 42.6207 35.5799 42.3663 35.6807L43.2253 36.9996H42.4925ZM40.7133 35.2144H41.6212C42.2401 35.2144 42.5495 34.9488 42.5495 34.4164C42.5495 33.9071 42.2401 33.6519 41.6212 33.6519H40.7133V35.2144Z" fill="black"/>
<path d="M53.4973 33.0555V35.3657C53.4973 35.8812 53.3487 36.2876 53.0535 36.5837C52.7604 36.8809 52.3543 37.029 51.8362 37.029C51.3171 37.029 50.91 36.8809 50.6148 36.5837C50.3186 36.2876 50.1711 35.8812 50.1711 35.3657V33.0555H50.8143V35.3657C50.8143 35.6964 50.9059 35.9568 51.0912 36.1469C51.2754 36.3349 51.5248 36.4283 51.8403 36.4283C52.1548 36.4283 52.4021 36.3349 52.5813 36.1469C52.7624 35.96 52.854 35.6996 52.854 35.3657V33.0555H53.4973Z" fill="black"/>
<path d="M56.8275 33.0555H58.3543C58.8347 33.0555 59.2062 33.1731 59.4698 33.4083C59.7355 33.6414 59.8688 33.9712 59.8688 34.3996C59.8688 34.848 59.7355 35.1955 59.4698 35.4413C59.2062 35.688 58.8347 35.8109 58.3543 35.8109H57.4749V36.9996H56.8275V33.0555ZM57.4749 33.6519V35.2144H58.3258C58.9415 35.2144 59.2499 34.9488 59.2499 34.4164C59.2499 33.9071 58.9415 33.6519 58.3258 33.6519H57.4749Z" fill="black"/>
</svg>
