<svg width="62" height="50" viewBox="0 0 62 50" fill="none" xmlns="http://www.w3.org/2000/svg">
<mask id="mask0_67_898" style="mask-type:luminance" maskUnits="userSpaceOnUse" x="3" y="0" width="57" height="50">
<path d="M3.29166 0H59.1826V50H3.29166V0Z" fill="white"/>
</mask>
<g mask="url(#mask0_67_898)">
<path d="M31.2433 11.4825L52.7805 49.9517H59.1908L31.2433 0.034668L3.29573 49.9517H9.70601L31.2433 11.4825Z" fill="white"/>
</g>
<mask id="mask1_67_898" style="mask-type:luminance" maskUnits="userSpaceOnUse" x="13" y="19" width="36" height="31">
<path d="M13.9331 19.189H48.5881V50H13.9331V19.189Z" fill="white"/>
</mask>
<g mask="url(#mask1_67_898)">
<path d="M31.2433 30.6673L42.0404 49.9517H48.4496L31.2433 19.2184L14.0369 49.9517H20.4461L31.2433 30.6673Z" fill="white"/>
</g>
<mask id="mask2_67_898" style="mask-type:luminance" maskUnits="userSpaceOnUse" x="0" y="29" width="62" height="11">
<path d="M0 29.6624H62V39.0815H0V29.6624Z" fill="white"/>
</mask>
<g mask="url(#mask2_67_898)">
<path d="M0 29.6624H62.002V39.0447H0V29.6624Z" fill="#D2F16C"/>
</g>
<path d="M2.87773 32.5555H4.40447C4.88489 32.5555 5.2564 32.6731 5.52001 32.9084C5.78567 33.1415 5.919 33.4712 5.919 33.8996C5.919 34.348 5.78567 34.6956 5.52001 34.9413C5.2564 35.1881 4.88489 35.3109 4.40447 35.3109H3.52507V36.4996H2.87773V32.5555ZM3.52507 33.152V34.7145H4.37597C4.99176 34.7145 5.30016 34.4488 5.30016 33.9164C5.30016 33.4071 4.99176 33.152 4.37597 33.152H3.52507Z" fill="black"/>
<path d="M11.435 35.6091H9.5052L9.13878 36.4996H8.46701L10.1566 32.5555H10.8162L12.4895 36.4996H11.8014L11.435 35.6091ZM11.1907 35.0169L10.4701 33.2654L9.7454 35.0169H11.1907Z" fill="black"/>
<path d="M17.8314 36.4996L17.1352 35.3025C17.0966 35.3088 17.0385 35.3109 16.9602 35.3109H16.0523V36.4996H15.4049V32.5555H16.9602C17.4457 32.5555 17.8233 32.6731 18.092 32.9084C18.3627 33.1415 18.4991 33.4712 18.4991 33.8996C18.4991 34.2167 18.4299 34.4835 18.2915 34.7019C18.1551 34.9203 17.9597 35.0799 17.7052 35.1807L18.5643 36.4996H17.8314ZM16.0523 34.7145H16.9602C17.579 34.7145 17.8884 34.4488 17.8884 33.9164C17.8884 33.4071 17.579 33.152 16.9602 33.152H16.0523V34.7145Z" fill="black"/>
<path d="M24.3779 33.152H23.1646V36.4996H22.5214V33.152H21.3122V32.5555H24.3779V33.152Z" fill="black"/>
<path d="M30.6548 36.4996H30.0197L27.9841 33.6686V36.4996H27.3367V32.5555H27.9718L30.0197 35.3907V32.5555H30.6548V36.4996Z" fill="black"/>
<path d="M36.8048 33.152H34.7202V34.2146H36.589V34.8153H34.7202V35.9032H36.874V36.4996H34.0729V32.5555H36.8048V33.152Z" fill="black"/>
<path d="M42.4925 36.4996L41.7963 35.3025C41.7576 35.3088 41.6996 35.3109 41.6212 35.3109H40.7133V36.4996H40.066V32.5555H41.6212C42.1067 32.5555 42.4844 32.6731 42.7531 32.9084C43.0238 33.1415 43.1602 33.4712 43.1602 33.8996C43.1602 34.2167 43.091 34.4835 42.9526 34.7019C42.8162 34.9203 42.6207 35.0799 42.3663 35.1807L43.2253 36.4996H42.4925ZM40.7133 34.7145H41.6212C42.2401 34.7145 42.5495 34.4488 42.5495 33.9164C42.5495 33.4071 42.2401 33.152 41.6212 33.152H40.7133V34.7145Z" fill="black"/>
<path d="M53.4973 32.5555V34.8657C53.4973 35.3813 53.3487 35.7876 53.0535 36.0838C52.7604 36.3809 52.3543 36.529 51.8362 36.529C51.3171 36.529 50.91 36.3809 50.6148 36.0838C50.3186 35.7876 50.1711 35.3813 50.1711 34.8657V32.5555H50.8143V34.8657C50.8143 35.1965 50.9059 35.4569 51.0912 35.6469C51.2754 35.8349 51.5248 35.9284 51.8403 35.9284C52.1548 35.9284 52.4021 35.8349 52.5813 35.6469C52.7624 35.46 52.854 35.1996 52.854 34.8657V32.5555H53.4973Z" fill="black"/>
<path d="M56.8275 32.5555H58.3543C58.8347 32.5555 59.2062 32.6731 59.4698 32.9084C59.7355 33.1415 59.8688 33.4712 59.8688 33.8996C59.8688 34.348 59.7355 34.6956 59.4698 34.9413C59.2062 35.1881 58.8347 35.3109 58.3543 35.3109H57.4749V36.4996H56.8275V32.5555ZM57.4749 33.152V34.7145H58.3258C58.9415 34.7145 59.2499 34.4488 59.2499 33.9164C59.2499 33.4071 58.9415 33.152 58.3258 33.152H57.4749Z" fill="black"/>
</svg>
