<svg width="32" height="32" viewBox="0 0 32 32" fill="none" xmlns="http://www.w3.org/2000/svg">
<path d="M23.3733 10.36C23.2805 10.3467 23.1862 10.3467 23.0933 10.36C22.0975 10.3274 21.1535 9.90828 20.4616 9.19141C19.7696 8.47455 19.3841 7.51637 19.3867 6.52002C19.3867 4.40002 21.1067 2.66669 23.24 2.66669C25.36 2.66669 27.0933 4.38669 27.0933 6.52002C27.0905 7.51699 26.7013 8.47406 26.0076 9.19013C25.3139 9.90619 24.3697 10.3255 23.3733 10.36ZM27.7227 19.6C26.2293 20.6 24.136 20.9734 22.2027 20.72C22.7093 19.6267 22.976 18.4134 22.9893 17.1334C22.9893 15.8 22.696 14.5334 22.136 13.4267C24.1093 13.16 26.2027 13.5334 27.7093 14.5334C29.816 15.92 29.816 18.2 27.7227 19.6ZM8.58667 10.36C8.68 10.3467 8.77333 10.3467 8.86666 10.36C9.86248 10.3274 10.8065 9.90828 11.4984 9.19141C12.1904 8.47455 12.5759 7.51637 12.5733 6.52002C12.5733 6.01487 12.4738 5.51466 12.2805 5.04796C12.0872 4.58127 11.8039 4.15721 11.4467 3.80002C11.0895 3.44282 10.6654 3.15948 10.1987 2.96616C9.73202 2.77285 9.23182 2.67335 8.72667 2.67335C8.22151 2.67335 7.72131 2.77285 7.25461 2.96616C6.78791 3.15948 6.36386 3.44282 6.00666 3.80002C5.64946 4.15721 5.36612 4.58127 5.17281 5.04796C4.97949 5.51466 4.88 6.01487 4.88 6.52002C4.88 8.60002 6.52 10.2934 8.58667 10.36ZM8.73466 17.1334C8.73466 18.4267 9.01466 19.6534 9.52133 20.76C7.64133 20.96 5.68133 20.56 4.24133 19.6134C2.13466 18.2134 2.13466 15.9334 4.24133 14.5334C5.668 13.5734 7.68133 13.1867 9.57467 13.4C9.028 14.52 8.73466 15.7867 8.73466 17.1334ZM16.16 21.16C16.0448 21.1467 15.9285 21.1467 15.8133 21.16C14.6278 21.1202 13.5043 20.6206 12.6806 19.7671C11.8569 18.9135 11.3976 17.7729 11.4 16.5867C11.4133 14.0534 13.4533 12 16 12C18.5333 12 20.5867 14.0534 20.5867 16.5867C20.5859 17.7742 20.1238 18.915 19.2979 19.7683C18.472 20.6216 17.3469 21.1206 16.16 21.16ZM11.8267 23.92C9.81333 25.2667 9.81333 27.48 11.8267 28.8134C14.12 30.3467 17.88 30.3467 20.1733 28.8134C22.1867 27.4667 22.1867 25.2534 20.1733 23.92C17.8933 22.3867 14.1333 22.3867 11.8267 23.92Z" fill="black"/>
</svg>
