<svg width="32" height="32" viewBox="0 0 32 32" fill="none" xmlns="http://www.w3.org/2000/svg">
<path d="M22.4414 20.8533C22.6428 20.7206 22.8765 20.6451 23.1176 20.6348C23.3586 20.6244 23.5979 20.6797 23.81 20.7946C24.0221 20.9096 24.199 21.0799 24.322 21.2875C24.4449 21.495 24.5092 21.7321 24.508 21.9733V23.6933C24.508 25.3867 23.188 27.2 21.6014 27.7333L17.348 29.1467C16.6014 29.4 15.388 29.4 14.6547 29.1467L10.4014 27.7333C8.80136 27.2 7.49469 25.3867 7.49469 23.6933V21.96C7.49469 20.9067 8.66803 20.2667 9.54803 20.84L12.2947 22.6267C13.348 23.3333 14.6814 23.68 16.0147 23.68C17.348 23.68 18.6814 23.3333 19.7347 22.6267L22.4414 20.8533Z" fill="black"/>
<path d="M26.64 8.61199L18.6534 3.37199C17.2134 2.42532 14.84 2.42532 13.4 3.37199L5.37336 8.61199C2.80003 10.2787 2.80003 14.052 5.37336 15.732L7.50669 17.1187L13.4 20.9587C14.84 21.9053 17.2134 21.9053 18.6534 20.9587L26.3334 15.9187V19.9987C26.3334 20.5453 26.7867 20.9987 27.3334 20.9987C27.88 20.9987 28.3334 20.5453 28.3334 19.9987V13.4387C28.8667 11.7187 28.32 9.71865 26.64 8.61199Z" fill="black"/>
</svg>
