<svg width="28" height="28" viewBox="0 0 28 28" fill="none" xmlns="http://www.w3.org/2000/svg">
<path d="M22.6266 20.44L23.1466 24.6534C23.28 25.76 22.0933 26.5334 21.1466 25.96L16.5333 23.2134C16.2133 23.0267 16.1333 22.6267 16.3066 22.3067C16.9733 21.08 17.3333 19.6934 17.3333 18.3067C17.3333 13.4267 13.1466 9.45335 7.99996 9.45335C6.94663 9.45335 5.91996 9.61335 4.95996 9.93335C4.84645 9.96836 4.72571 9.97272 4.60997 9.94599C4.49424 9.91926 4.38764 9.86239 4.30098 9.78115C4.21432 9.69991 4.1507 9.5972 4.11657 9.48343C4.08243 9.36966 4.079 9.24888 4.10663 9.13335C5.31996 4.28002 9.98663 0.666687 15.56 0.666687C22.0666 0.666687 27.3333 5.58669 27.3333 11.6534C27.3333 15.2534 25.48 18.44 22.6266 20.44Z" fill="black"/>
<path d="M15.3333 18.3067C15.3333 19.8934 14.7466 21.36 13.76 22.52C12.44 24.12 10.3466 25.1467 7.99996 25.1467L4.51996 27.2134C3.93329 27.5734 3.18663 27.08 3.26663 26.4L3.59996 23.7734C1.81329 22.5334 0.666626 20.5467 0.666626 18.3067C0.666626 15.96 1.91996 13.8934 3.83996 12.6667C5.02663 11.8934 6.45329 11.4534 7.99996 11.4534C12.0533 11.4534 15.3333 14.52 15.3333 18.3067Z" fill="black"/>
</svg>
